<svg width="454" height="214" viewBox="0 0 454 214" fill="none" xmlns="http://www.w3.org/2000/svg">
<g clip-path="url(#clip0_1_26)">
<path d="M152.08 175.329C147.416 175.329 142.857 173.946 138.98 171.355C135.102 168.764 132.08 165.081 130.295 160.773C128.51 156.464 128.043 151.723 128.953 147.149C129.863 142.575 132.109 138.373 135.406 135.075C138.704 131.778 142.906 129.532 147.48 128.622C152.054 127.712 156.795 128.179 161.104 129.964C165.412 131.749 169.095 134.771 171.686 138.649C174.277 142.526 175.66 147.085 175.66 151.749C175.655 158.001 173.169 163.996 168.748 168.417C164.327 172.838 158.332 175.324 152.08 175.329ZM152.08 131.419C148.059 131.419 144.129 132.611 140.785 134.845C137.442 137.079 134.836 140.254 133.298 143.969C131.759 147.684 131.356 151.772 132.141 155.715C132.925 159.659 134.861 163.281 137.705 166.124C140.548 168.968 144.17 170.904 148.114 171.688C152.057 172.473 156.145 172.07 159.86 170.531C163.575 168.993 166.75 166.387 168.984 163.044C171.218 159.7 172.41 155.77 172.41 151.749C172.405 146.359 170.261 141.191 166.45 137.379C162.638 133.568 157.47 131.424 152.08 131.419Z" fill="#F07F03"/>
<path d="M129.24 175.329H94.25V128.169H97.5V172.079H129.24V175.329Z" fill="#F07F03"/>
<path d="M85.53 128.169V150.849C83.6033 152.655 81.061 153.66 78.42 153.659C75.694 153.652 73.0797 152.574 71.14 150.659L70.88 150.399C69.5993 149.074 68.0639 148.021 66.366 147.305C64.6681 146.588 62.8429 146.222 61 146.229C58.4977 146.231 56.0444 146.923 53.91 148.229V128.169H50.65V175.329H53.9V152.229C55.8233 150.431 58.3573 149.43 60.99 149.429C63.7254 149.434 66.3499 150.511 68.3 152.429L68.55 152.689C69.8263 154.019 71.3588 155.077 73.0552 155.799C74.7515 156.521 76.5765 156.892 78.42 156.889C80.9293 156.892 83.3903 156.2 85.53 154.889V175.329H88.78V128.169H85.53Z" fill="#F07F03"/>
<path d="M216.68 131.419V128.169H180.16V175.329H216.68V172.079H183.41V153.379H205.94V150.129H183.41V131.419H216.68Z" fill="#F07F03"/>
<path d="M24.09 175.469C17.7991 175.469 11.7658 172.97 7.31742 168.521C2.86906 164.073 0.369995 158.04 0.369995 151.749C0.369995 145.458 2.86906 139.424 7.31742 134.976C11.7658 130.528 17.7991 128.029 24.09 128.029C28.4861 128.008 32.8039 129.192 36.5747 131.453C40.3455 133.713 43.4253 136.962 45.48 140.849L42.61 142.369C40.8288 139.006 38.1615 136.195 34.8969 134.24C31.6323 132.285 27.8951 131.261 24.09 131.279C18.661 131.279 13.4544 133.435 9.61552 137.274C5.77665 141.113 3.62 146.32 3.62 151.749C3.62 157.178 5.77665 162.384 9.61552 166.223C13.4544 170.062 18.661 172.219 24.09 172.219C27.8943 172.238 31.6313 171.216 34.896 169.263C38.1606 167.309 40.8284 164.5 42.61 161.139L45.48 162.649C43.4253 166.535 40.3455 169.785 36.5747 172.045C32.8039 174.305 28.4861 175.489 24.09 175.469Z" fill="#F07F03"/>
<path d="M453.33 131.419V128.169H416.82V175.329H453.33V172.079H420.07V153.379H442.6V150.129H420.07V131.419H453.33Z" fill="#F07F03"/>
<path d="M252.87 131.419C259.14 131.419 265.87 133.839 265.87 140.629H269.12C269.12 133.059 262.76 128.169 252.91 128.169C243.06 128.169 236.7 133.059 236.7 140.629C236.7 148.369 243.06 153.379 252.91 153.379C259.18 153.379 265.91 155.869 265.91 162.869C265.91 169.659 259.22 172.079 252.91 172.079C246.6 172.079 239.91 169.659 239.91 162.869H236.66C236.66 170.439 243.02 175.329 252.87 175.329C262.72 175.329 269.08 170.439 269.08 162.869C269.08 155.129 262.72 150.129 252.87 150.129C244.75 150.129 239.87 146.579 239.87 140.629C239.91 133.839 246.6 131.419 252.87 131.419Z" fill="#F07F03"/>
<path d="M283.53 157.949H307.41L315.41 175.329H319L297.38 128.169H293.6L272 175.329H275.58L283.53 157.949ZM295.47 131.899L305.92 154.699H285L295.47 131.899Z" fill="#F07F03"/>
<path d="M364.17 143.089C364.149 139.137 362.569 135.352 359.773 132.559C356.978 129.765 353.192 128.187 349.24 128.169H324.7V175.329H328V131.429H349.28C350.837 131.383 352.387 131.65 353.838 132.215C355.29 132.779 356.613 133.629 357.73 134.713C358.847 135.798 359.736 137.096 360.342 138.531C360.949 139.965 361.261 141.507 361.261 143.064C361.261 144.621 360.949 146.163 360.342 147.597C359.736 149.031 358.847 150.329 357.73 151.414C356.613 152.499 355.29 153.349 353.838 153.913C352.387 154.477 350.837 154.745 349.28 154.699H332.28V157.949H346.15C348.03 157.954 349.832 158.704 351.161 160.035C352.49 161.366 353.237 163.168 353.24 165.049C353.245 167.775 354.331 170.389 356.26 172.316C358.189 174.243 360.803 175.326 363.53 175.329H364.25V172.069H363.53C361.673 172.069 359.893 171.331 358.58 170.019C357.267 168.706 356.53 166.925 356.53 165.069C356.53 163.65 356.234 162.246 355.66 160.948C355.087 159.649 354.249 158.485 353.2 157.529C356.37 156.678 359.168 154.798 361.153 152.184C363.139 149.571 364.2 146.371 364.17 143.089Z" fill="#F07F03"/>
<path d="M410.27 143.089C410.249 139.138 408.67 135.356 405.877 132.562C403.083 129.769 399.301 128.19 395.35 128.169H370.8V175.329H374.06V131.429H395.35C396.907 131.383 398.457 131.65 399.908 132.215C401.36 132.779 402.683 133.629 403.8 134.713C404.918 135.798 405.806 137.096 406.412 138.531C407.019 139.965 407.331 141.507 407.331 143.064C407.331 144.621 407.019 146.163 406.412 147.597C405.806 149.031 404.918 150.329 403.8 151.414C402.683 152.499 401.36 153.349 399.908 153.913C398.457 154.477 396.907 154.745 395.35 154.699H378.3V157.949H392.17C394.051 157.954 395.852 158.704 397.181 160.035C398.51 161.366 399.257 163.168 399.26 165.049C399.265 167.775 400.352 170.389 402.28 172.316C404.209 174.243 406.824 175.326 409.55 175.329H410.27V172.069H409.55C407.694 172.069 405.913 171.331 404.6 170.019C403.288 168.706 402.55 166.925 402.55 165.069C402.55 163.65 402.254 162.246 401.681 160.948C401.107 159.649 400.269 158.485 399.22 157.529C402.407 156.696 405.224 154.823 407.226 152.208C409.228 149.592 410.299 146.383 410.27 143.089Z" fill="#F07F03"/>
<path d="M133.41 193.769C131.476 192.9 129.29 192.779 127.272 193.427C125.253 194.075 123.547 195.447 122.48 197.279C121.34 199.25 121.028 201.593 121.613 203.794C122.198 205.995 123.632 207.874 125.6 209.019C126.916 209.778 128.411 210.172 129.93 210.159C131.116 210.154 132.289 209.913 133.38 209.449C134.493 208.969 135.509 208.292 136.38 207.449L138.23 209.449C137.101 210.557 135.77 211.44 134.31 212.049C132.657 212.755 130.863 213.07 129.069 212.971C127.274 212.873 125.526 212.362 123.96 211.479C122.213 210.489 120.762 209.05 119.758 207.311C118.754 205.573 118.234 203.597 118.25 201.589C118.234 199.576 118.77 197.598 119.8 195.869C120.814 194.149 122.272 192.733 124.02 191.769C125.822 190.772 127.851 190.259 129.91 190.279C131.455 190.277 132.986 190.573 134.42 191.149C135.833 191.71 137.119 192.55 138.2 193.619L136.38 195.819C135.533 194.949 134.524 194.252 133.41 193.769Z" fill="url(#paint0_linear_1_26)"/>
<path d="M165.62 212.809L161.19 205.809C160.68 205.809 160.27 205.869 159.95 205.869H154.28V212.869H151.22V190.569H160C162.349 190.428 164.671 191.138 166.54 192.569C167.321 193.26 167.935 194.119 168.335 195.083C168.736 196.046 168.912 197.087 168.85 198.129C168.9 199.737 168.465 201.322 167.6 202.679C166.718 203.943 165.447 204.884 163.98 205.359L169.17 212.909L165.62 212.809ZM160 203.089C161.565 203.192 163.118 202.747 164.39 201.829C164.913 201.37 165.324 200.796 165.589 200.153C165.855 199.509 165.968 198.813 165.92 198.119C165.966 197.439 165.852 196.758 165.586 196.131C165.32 195.504 164.91 194.948 164.39 194.509C163.11 193.609 161.561 193.175 160 193.279H154.33V203.089H160Z" fill="url(#paint1_linear_1_26)"/>
<path d="M183 190.509H198.48V193.279H186.09V200.159H197.21V202.929H186.09V210.039H198.9V212.809H183V190.509Z" fill="url(#paint2_linear_1_26)"/>
<path d="M230.11 212.809L227.75 207.389H216L213.67 212.809H210.46L220.36 190.509H223.55L233.42 212.809H230.11ZM217.21 204.619H226.57L221.86 193.789L217.21 204.619Z" fill="url(#paint3_linear_1_26)"/>
<path d="M240.6 190.509H258V193.309H250.8V212.809H247.8V193.309H240.6V190.509Z" fill="url(#paint4_linear_1_26)"/>
<path d="M270.39 190.509H273.45V212.809H270.39V190.509Z" fill="url(#paint5_linear_1_26)"/>
<path d="M285.74 190.509H289L296.36 209.399L303.72 190.509H307L298 212.809H294.81L285.74 190.509Z" fill="url(#paint6_linear_1_26)"/>
<path d="M319.23 190.509H334.71V193.279H322.29V200.159H333.4V202.929H322.29V210.039H335.09V212.809H319.23V190.509Z" fill="url(#paint7_linear_1_26)"/>
<path d="M257.94 86.6888C263.39 71.8888 254.3 54.2988 237.94 52.7788C237.853 52.7725 237.766 52.7976 237.695 52.8494C237.624 52.9012 237.574 52.9764 237.554 53.0617C237.534 53.1469 237.544 53.2366 237.584 53.3149C237.623 53.3931 237.689 53.4547 237.77 53.4888C264.28 65.1188 250.15 101.819 222.7 95.4888C203.09 91.5488 205.12 68.6888 223.11 75.2388C223.187 75.2683 223.272 75.2711 223.351 75.2468C223.43 75.2224 223.499 75.1723 223.546 75.1043C223.593 75.0364 223.616 74.9546 223.612 74.8721C223.607 74.7895 223.575 74.7109 223.52 74.6488C213.3 63.1588 198.7 73.3788 201.12 85.6988C197.363 82.5392 194.176 78.7575 191.7 74.5188C187.944 67.8636 185.97 60.3509 185.97 52.7088C185.97 45.0666 187.944 37.554 191.7 30.8988C194.239 26.553 197.526 22.6903 201.41 19.4888C196.56 34.1188 205.61 51.1088 221.69 52.5988C221.777 52.605 221.864 52.58 221.935 52.5281C222.006 52.4763 222.056 52.4011 222.076 52.3159C222.097 52.2306 222.086 52.1409 222.046 52.0627C222.007 51.9844 221.941 51.9228 221.86 51.8888C195.36 40.2588 209.48 3.56876 236.94 9.88876C256.54 13.8288 254.51 36.6888 236.52 30.1388C236.442 30.1092 236.356 30.107 236.276 30.1325C236.196 30.1581 236.128 30.21 236.081 30.2796C236.035 30.3492 236.013 30.4326 236.02 30.5159C236.027 30.5993 236.063 30.6779 236.12 30.7388C246.55 42.4688 261.57 31.5588 258.35 18.8988C265.763 24.0556 271.638 31.1267 275.35 39.3588C275.392 39.4133 275.449 39.4549 275.513 39.4791C275.578 39.5032 275.648 39.5088 275.715 39.4953C275.783 39.4818 275.845 39.4497 275.896 39.4026C275.946 39.3555 275.982 39.2953 276 39.2288C275.16 29.2288 268.7 17.9588 261.07 11.4888C251.753 3.77271 239.918 -0.23641 227.83 0.228763C218.8 0.63701 210.02 3.32766 202.311 8.04935C194.603 12.771 188.217 19.3697 183.75 27.2288C179.549 35.0358 177.35 43.7631 177.35 52.6288C177.35 61.4945 179.549 70.2217 183.75 78.0288C188.22 85.8848 194.607 92.4809 202.315 97.2021C210.023 101.923 218.801 104.616 227.83 105.029C239.904 105.506 251.73 101.519 261.05 93.8288C268.69 87.3588 275.14 76.0888 275.98 66.0888C276.003 65.9959 275.987 65.898 275.938 65.8164C275.888 65.7348 275.808 65.6763 275.715 65.6538C275.622 65.6312 275.524 65.6465 275.443 65.6962C275.361 65.7459 275.303 65.8259 275.28 65.9188C271.537 74.3003 265.558 81.4896 258 86.6988C258 86.6988 257.94 86.6988 257.94 86.6888Z" fill="url(#paint8_linear_1_26)"/>
</g>
<defs>
<linearGradient id="paint0_linear_1_26" x1="115.46" y1="201.669" x2="329.6" y2="201.669" gradientUnits="userSpaceOnUse">
<stop stop-color="#004F9F"/>
<stop offset="0.33" stop-color="#00B6ED"/>
<stop offset="0.67" stop-color="#FFD500"/>
<stop offset="1" stop-color="#EE7203"/>
</linearGradient>
<linearGradient id="paint1_linear_1_26" x1="115.46" y1="201.659" x2="329.6" y2="201.659" gradientUnits="userSpaceOnUse">
<stop stop-color="#004F9F"/>
<stop offset="0.33" stop-color="#00B6ED"/>
<stop offset="0.67" stop-color="#FFD500"/>
<stop offset="1" stop-color="#EE7203"/>
</linearGradient>
<linearGradient id="paint2_linear_1_26" x1="115.46" y1="201.659" x2="329.6" y2="201.659" gradientUnits="userSpaceOnUse">
<stop stop-color="#004F9F"/>
<stop offset="0.33" stop-color="#00B6ED"/>
<stop offset="0.67" stop-color="#FFD500"/>
<stop offset="1" stop-color="#EE7203"/>
</linearGradient>
<linearGradient id="paint3_linear_1_26" x1="115.46" y1="201.659" x2="329.6" y2="201.659" gradientUnits="userSpaceOnUse">
<stop stop-color="#004F9F"/>
<stop offset="0.33" stop-color="#00B6ED"/>
<stop offset="0.67" stop-color="#FFD500"/>
<stop offset="1" stop-color="#EE7203"/>
</linearGradient>
<linearGradient id="paint4_linear_1_26" x1="115.46" y1="201.659" x2="329.6" y2="201.659" gradientUnits="userSpaceOnUse">
<stop stop-color="#004F9F"/>
<stop offset="0.33" stop-color="#00B6ED"/>
<stop offset="0.67" stop-color="#FFD500"/>
<stop offset="1" stop-color="#EE7203"/>
</linearGradient>
<linearGradient id="paint5_linear_1_26" x1="115.46" y1="201.659" x2="329.6" y2="201.659" gradientUnits="userSpaceOnUse">
<stop stop-color="#004F9F"/>
<stop offset="0.33" stop-color="#00B6ED"/>
<stop offset="0.67" stop-color="#FFD500"/>
<stop offset="1" stop-color="#EE7203"/>
</linearGradient>
<linearGradient id="paint6_linear_1_26" x1="115.46" y1="201.659" x2="329.6" y2="201.659" gradientUnits="userSpaceOnUse">
<stop stop-color="#004F9F"/>
<stop offset="0.33" stop-color="#00B6ED"/>
<stop offset="0.67" stop-color="#FFD500"/>
<stop offset="1" stop-color="#EE7203"/>
</linearGradient>
<linearGradient id="paint7_linear_1_26" x1="115.46" y1="201.659" x2="329.6" y2="201.659" gradientUnits="userSpaceOnUse">
<stop stop-color="#004F9F"/>
<stop offset="0.33" stop-color="#00B6ED"/>
<stop offset="0.67" stop-color="#FFD500"/>
<stop offset="1" stop-color="#EE7203"/>
</linearGradient>
<linearGradient id="paint8_linear_1_26" x1="177.35" y1="52.6788" x2="275.98" y2="52.6788" gradientUnits="userSpaceOnUse">
<stop stop-color="#004F9F"/>
<stop offset="0.33" stop-color="#00B6ED"/>
<stop offset="0.67" stop-color="#FFD500"/>
<stop offset="1" stop-color="#EE7203"/>
</linearGradient>
<clipPath id="clip0_1_26">
<rect width="453.33" height="212.8" fill="white" transform="translate(0 0.229004)"/>
</clipPath>
</defs>
</svg>
